<?xml version="1.0" encoding="UTF-8" standalone="no"?>
<svg
   xmlns:dc="http://purl.org/dc/elements/1.1/"
   xmlns:cc="http://creativecommons.org/ns#"
   xmlns:rdf="http://www.w3.org/1999/02/22-rdf-syntax-ns#"
   xmlns:svg="http://www.w3.org/2000/svg"
   xmlns="http://www.w3.org/2000/svg"
   xmlns:sodipodi="http://sodipodi.sourceforge.net/DTD/sodipodi-0.dtd"
   xmlns:inkscape="http://www.inkscape.org/namespaces/inkscape"
   inkscape:version="1.0beta2 (2b71d25, 2019-12-03)"
   inkscape:export-ydpi="150"
   inkscape:export-xdpi="150"
   inkscape:export-filename="/Users/kauedesousa/Dropbox (Bioversity CR)/Rcode/gosset/man/figures/logo.png"
   sodipodi:docname="logo.svg"
   id="svg6"
   version="1.1"
   viewBox="0 0 170.07874 196.53543"
   height="5.1999998cm"
   width="4.5cm">
  <metadata
     id="metadata12">
    <rdf:RDF>
      <cc:Work
         rdf:about="">
        <dc:format>image/svg+xml</dc:format>
        <dc:type
           rdf:resource="http://purl.org/dc/dcmitype/StillImage" />
        <dc:title />
      </cc:Work>
    </rdf:RDF>
  </metadata>
  <defs
     id="defs10">
    <clipPath
       id="clipPath457"
       clipPathUnits="userSpaceOnUse">
      <path
         d="m -533.77162,95.037762 v -141.98209 l 116.88679,-71.003362 116.88682,71.003362 v 141.98209 l -116.88682,71.001318 z"
         id="path459"
         inkscape:connector-curvature="0"
         style="fill:#f9f9f9;stroke-width:2.00058"
         inkscape:export-xdpi="100"
         inkscape:export-ydpi="100" />
    </clipPath>
  </defs>
  <sodipodi:namedview
     inkscape:document-rotation="0"
     units="cm"
     inkscape:current-layer="svg6"
     inkscape:window-maximized="0"
     inkscape:window-y="23"
     inkscape:window-x="0"
     inkscape:cy="143.70692"
     inkscape:cx="65.906439"
     inkscape:zoom="2.1821704"
     showgrid="false"
     id="namedview8"
     inkscape:window-height="968"
     inkscape:window-width="1792"
     inkscape:pageshadow="2"
     inkscape:pageopacity="0"
     guidetolerance="10"
     gridtolerance="10"
     objecttolerance="10"
     borderopacity="1"
     bordercolor="#666666"
     pagecolor="#ffffff" />
  <g
     clip-path="url(#clipPath457)"
     transform="matrix(0.66796979,0,0,0.67608783,363.80035,81.869569)"
     id="g455">
    <rect
       id="rect364"
       height="284.444"
       width="284.444"
       style="fill:#b5f1f4"
       y="-117.94769"
       x="-559.10681" />
    <rect
       id="rect366"
       height="142.222"
       width="142.222"
       style="fill:#31bafd"
       y="24.274305"
       x="-559.10681" />
    <polygon
       id="polygon368"
       points="256,257.15 113.778,398.222 256,398.222 "
       style="fill:#2b9ed8"
       transform="translate(-672.88482,-231.72569)" />
    <path
       id="path370"
       d="m -274.66282,-117.94769 h -142.222 V 24.274306 h 49.952 c -4.515,5.036 -7.285,11.667 -7.285,18.963 0,15.71 12.734,28.444 28.444,28.444 15.71,0 28.444,-12.734 28.444,-28.444 0,-7.296 -2.77,-13.927 -7.285,-18.963 h 49.952 z"
       style="fill:#c1321f"
       inkscape:connector-curvature="0" />
    <path
       id="path372"
       d="m -274.66282,-117.94769 -141.072,142.221996 h 48.802 c -4.515,5.036 -7.285,11.667 -7.285,18.963 0,15.71 12.734,28.444 28.444,28.444 15.71,0 28.444,-12.734 28.444,-28.444 0,-7.296 -2.77,-13.927 -7.285,-18.963 h 49.952 z"
       style="fill:#a82116"
       inkscape:connector-curvature="0" />
    <path
       id="path374"
       d="m -401.36982,-78.297694 c -5.729,0 -11.05,1.708 -15.515,4.622 v -44.271996 h -142.222 V 24.274306 h 49.952 c -4.515,5.036 -7.285,11.667 -7.285,18.963 0,15.71 12.734,28.444 28.444,28.444 15.71,0 28.444,-12.734 28.444,-28.444 0,-7.296 -2.77,-13.927 -7.285,-18.963 h 49.952 v -50.305 c 4.465,2.913 9.787,4.622 15.515,4.622 15.71,0 28.444,-12.734 28.444,-28.444 0,-15.71 -12.734,-28.445 -28.444,-28.445 z"
       style="fill:#ffffff"
       inkscape:connector-curvature="0" />
    <path
       id="path376"
       d="m -317.32882,43.237306 c 0,15.71 -12.734,28.444 -28.444,28.444 -15.71,0 -28.444,-12.734 -28.444,-28.444 0,-7.296 2.77,-13.927 7.285,-18.963 h -49.953 v 60.101 c -5.206,-6.666 -13.298,-10.969 -22.411,-10.969 -15.71,0 -28.444,12.734 -28.444,28.444004 0,15.71 12.734,28.444 28.444,28.444 9.113,0 17.205,-4.303 22.411,-10.969 v 47.171 h 142.222 V 24.274306 h -49.952 c 4.515,5.036 7.286,11.667 7.286,18.963 z"
       style="fill:#ffd15d"
       inkscape:connector-curvature="0" />
  </g>
  <path
     inkscape:export-ydpi="100"
     inkscape:export-xdpi="100"
     inkscape:connector-curvature="0"
     style="fill:#000000;stroke-width:1.33034372"
     id="path4"
     d="M 85.333882,9.8211794 161.65767,53.979539 V 142.27359 L 85.333882,186.43196 9.0101013,142.27359 V 53.979539 Z m 0,-7.6946117 L 2.3732513,50.126233 V 146.1269 L 85.333882,194.12657 168.29452,146.1269 V 50.126233 Z" />
  <text
     inkscape:export-ydpi="100"
     inkscape:export-xdpi="100"
     id="text833"
     y="91.140663"
     x="10.522141"
     style="font-style:normal;font-variant:normal;font-weight:bold;font-stretch:normal;font-size:20px;line-height:1.25;font-family:sans-serif;-inkscape-font-specification:'sans-serif Bold';font-variant-ligatures:normal;font-variant-caps:normal;font-variant-numeric:normal;font-variant-east-asian:normal;text-align:start;letter-spacing:0px;word-spacing:0px;writing-mode:lr-tb;text-anchor:start;fill:#000000;fill-opacity:1;stroke:none;"
     xml:space="preserve"><tspan
       y="91.140663"
       x="10.522141"
       id="tspan831"
       sodipodi:role="line">gosset</tspan></text>
</svg>
